<svg width="14" height="14" viewBox="0 0 14 14" fill="none" xmlns="http://www.w3.org/2000/svg">
<path d="M12.621 5.01037L8.7111 4.42733L6.96327 0.791631C6.91553 0.692088 6.837 0.611505 6.73998 0.562524C6.49667 0.439279 6.201 0.541983 6.07935 0.791631L4.33152 4.42733L0.421611 5.01037C0.313816 5.02617 0.215259 5.07832 0.139802 5.15732C0.048579 5.25352 -0.00168917 5.38295 4.3343e-05 5.51716C0.00177586 5.65137 0.0553674 5.77939 0.149042 5.87308L2.97791 8.70296L2.30958 12.6989C2.2939 12.7919 2.30393 12.8875 2.33851 12.9749C2.3731 13.0623 2.43086 13.138 2.50525 13.1934C2.57964 13.2489 2.66768 13.2818 2.75939 13.2885C2.8511 13.2952 2.9428 13.2754 3.02411 13.2314L6.52131 11.3448L10.0185 13.2314C10.114 13.2835 10.2249 13.3009 10.3311 13.2819C10.5991 13.2345 10.7792 12.9738 10.733 12.6989L10.0647 8.70296L12.8936 5.87308C12.9706 5.79566 13.0214 5.69454 13.0368 5.58393C13.0784 5.30742 12.8905 5.05145 12.621 5.01037Z" fill="#FFB742"/>
</svg>
